<?xml version="1.0" encoding="UTF-8"?>
<svg version="1.1" xmlns="http://www.w3.org/2000/svg" width="710" height="710">
<path d="M0 0 C1.82470399 -0.00187264 3.64940758 -0.00417513 5.47411054 -0.00686532 C10.44445865 -0.01293374 15.41478982 -0.01285563 20.38514078 -0.01167095 C25.76299378 -0.01146568 31.14084151 -0.01699769 36.51869202 -0.02172852 C47.03861654 -0.03000835 57.55853546 -0.03278215 68.07846297 -0.03334089 C76.63623724 -0.03381732 85.19400968 -0.03587837 93.75178337 -0.03904152 C118.05526877 -0.0478408 142.35874976 -0.05246203 166.66223676 -0.05171105 C167.97038671 -0.05167109 169.27853666 -0.05163113 170.62632751 -0.05158997 C172.59096928 -0.05152864 172.59096928 -0.05152864 174.59530079 -0.05146609 C195.81159284 -0.05105982 217.02786713 -0.06062645 238.24415404 -0.07472833 C260.0687024 -0.08911917 281.8932421 -0.09599703 303.71779531 -0.09513456 C315.95459236 -0.09480352 328.19137078 -0.09750942 340.42816353 -0.10831261 C350.84798443 -0.11745331 361.26777826 -0.11956369 371.68760145 -0.11280318 C376.99475428 -0.10955593 382.30185529 -0.10941577 387.60900307 -0.11815643 C433.96183045 -0.18947617 474.72278857 1.58505897 511.41270447 33.13371277 C512.47231384 33.99222839 512.47231384 33.99222839 513.55332947 34.86808777 C533.76632633 51.5796206 545.43642384 77.20493836 551.41270447 102.13371277 C551.58596146 102.83820714 551.75921846 103.54270151 551.93772566 104.2685442 C552.54409792 107.92630476 552.55558873 111.52201303 552.54971886 115.21786499 C552.55237068 116.0311388 552.55502251 116.84441261 552.5577547 117.68233109 C552.56543978 120.41898491 552.56600657 123.1555938 552.56660461 125.89225769 C552.5706198 127.86976107 552.57505812 129.84726364 552.57988417 131.82476521 C552.59185003 137.26848355 552.5974982 142.71219302 552.60206532 148.15592194 C552.60802165 154.02405376 552.61963171 159.892175 552.63035583 165.76029968 C552.65488353 179.94012428 552.66950999 194.11995367 552.6824159 208.29979277 C552.68669902 212.97373477 552.69145583 217.64767625 552.69620084 222.32161781 C552.72074129 246.54484248 552.74180951 270.76806819 552.75389671 294.99130249 C552.75681785 300.75752261 552.75978541 306.5237427 552.76280212 312.28996277 C552.76317303 313.00631657 552.76354394 313.72267038 552.76392609 314.46073188 C552.77606698 337.65844068 552.80698633 360.85607336 552.84872365 384.05374645 C552.89158594 407.92041732 552.9181474 431.78704802 552.92337143 455.65375841 C552.92411178 459.03059098 552.92502245 462.40742348 552.92602921 465.78425598 C552.92621982 466.44878613 552.92641043 467.11331627 552.92660683 467.7979837 C552.92989302 477.79928665 552.94723363 487.80050111 552.97192001 497.80177307 C552.99999637 509.19508268 553.01088672 520.58824769 552.99972455 531.9815892 C552.99455686 537.78875524 552.99730136 543.59561887 553.02219009 549.40274048 C553.04484298 554.73302683 553.04381926 560.06279636 553.02498622 565.39309275 C553.02220849 567.3078471 553.02765857 569.22263772 553.04279916 571.13733423 C553.26676579 601.33983071 543.09780324 629.15528949 523.41270447 652.13371277 C522.71403259 652.96644714 522.01536072 653.79918152 521.29551697 654.65715027 C498.6958159 680.79559456 465.33140644 694.46904193 431.41270447 697.13371277 C417.60887736 697.90245937 403.74250596 697.67142541 389.92351282 697.62729335 C384.35643983 697.61397513 378.78939834 697.62407132 373.22232056 697.63105774 C362.35414096 697.64107423 351.48608433 697.62994538 340.61792003 697.61135714 C327.94015259 697.59046241 315.26241085 697.59073281 302.58462942 697.5917023 C279.27664498 697.59273072 255.96872824 697.57273705 232.66076926 697.54269742 C211.42239141 697.51542599 190.18405866 697.50297641 168.94566345 697.50431824 C167.5804096 697.50439906 166.21515576 697.50447978 164.84990191 697.5045604 C164.17491482 697.5046011 163.49992772 697.5046418 162.80448648 697.50468373 C159.40604955 697.50488535 156.00761262 697.50506651 152.60917568 697.50522423 C151.93858034 697.50525765 151.26798501 697.50529108 150.5770686 697.50532552 C128.95364618 697.50621399 107.33023143 697.49196888 85.7068154 697.47649854 C76.88292668 697.47048258 68.05904184 697.46834145 59.23515129 697.46743393 C48.47979077 697.46606596 37.72446582 697.45708465 26.96912038 697.43876831 C21.48847513 697.42957266 16.00787516 697.42342641 10.52722168 697.42595673 C5.50096388 697.42816468 0.47480585 697.42100232 -4.55143117 697.40665968 C-6.35982385 697.40306678 -8.16822696 697.40273899 -9.97661991 697.40619425 C-24.64476605 697.43109641 -39.25192295 696.68783185 -53.52479553 693.00871277 C-54.35124573 692.79698425 -55.17769592 692.58525574 -56.02919006 692.36711121 C-87.36342516 683.87515727 -114.13784351 662.27855971 -130.64588928 634.52824402 C-144.43381697 610.42017729 -148.74293951 586.24458019 -148.72773743 558.76768494 C-148.73032403 556.89382404 -148.733338 555.01996369 -148.73674083 553.1461041 C-148.74477971 548.01205067 -148.74659866 542.87801125 -148.74733829 537.74395227 C-148.74919433 532.20036605 -148.75674451 526.65678701 -148.76347351 521.11320496 C-148.77703608 508.99700488 -148.78307855 496.88080811 -148.78748417 484.76460171 C-148.79025058 477.19193133 -148.7944887 469.61926223 -148.79898834 462.04659271 C-148.8111792 441.06013452 -148.82151362 420.073677 -148.82486343 399.08721542 C-148.82508506 397.73131123 -148.82530685 396.37540703 -148.82552879 395.01950283 C-148.82574942 393.660437 -148.8259699 392.30137116 -148.82619023 390.94230533 C-148.82663277 388.21606874 -148.82707989 385.48983216 -148.82752991 382.76359558 C-148.8276393 382.08765288 -148.82774869 381.41171017 -148.82786139 380.71528435 C-148.83148855 358.81904961 -148.84739678 336.92284804 -148.87072027 315.02662599 C-148.89536955 291.84307772 -148.90903197 268.65954766 -148.91023135 245.47598386 C-148.91114593 232.85179149 -148.91684335 220.22764257 -148.93505096 207.60346222 C-148.95050673 196.84968763 -148.95554031 186.0959699 -148.94731286 175.3421863 C-148.94342545 169.86302751 -148.94424183 164.38398304 -148.95837021 158.90483856 C-149.0663143 114.43253584 -146.2697083 73.66928089 -113.58729553 40.13371277 C-112.38073303 38.86527527 -112.38073303 38.86527527 -111.14979553 37.57121277 C-110.30417053 36.76683777 -109.45854553 35.96246277 -108.58729553 35.13371277 C-107.91698303 34.48015808 -107.24667053 33.82660339 -106.55604553 33.15324402 C-76.99424603 5.27109221 -38.94958469 -0.03840548 0 0 Z M-82.58729553 66.13371277 C-83.19960022 66.67254089 -83.81190491 67.21136902 -84.44276428 67.76652527 C-99.98769553 81.92415144 -106.59177064 103.88784135 -108.58729553 124.13371277 C-108.6753889 126.79194616 -108.72549609 129.42294659 -108.7187233 132.08001518 C-108.72077593 132.84193298 -108.72282856 133.60385079 -108.7249434 134.38885701 C-108.73058155 136.93272153 -108.72916011 139.47653136 -108.72773743 142.020401 C-108.7303229 143.86651297 -108.73333657 145.71262438 -108.73674083 147.55873501 C-108.74479285 152.62521862 -108.7465994 157.69168804 -108.74733829 162.75817728 C-108.74919202 168.22537521 -108.75674103 173.69256583 -108.76347351 179.15975952 C-108.77704527 191.11259152 -108.78307994 203.06542015 -108.78748417 215.01825857 C-108.79024893 222.4860259 -108.79448675 229.95379193 -108.79898834 237.42155838 C-108.81118022 258.10941674 -108.82151457 278.79727415 -108.82486343 299.48513603 C-108.82508506 300.82215458 -108.82530685 302.15917314 -108.82552879 303.49619169 C-108.82574942 304.83636197 -108.82596991 306.17653225 -108.82619023 307.51670253 C-108.82663277 310.20512001 -108.82707989 312.89353748 -108.82752991 315.58195496 C-108.8276393 316.24852257 -108.82774869 316.91509019 -108.82786139 317.60185682 C-108.83148946 339.19990432 -108.84740072 360.79791821 -108.87072027 382.39595284 C-108.89535479 405.25386386 -108.90903128 428.11176035 -108.91023135 450.96968567 C-108.91114672 463.42051733 -108.91686404 475.87130498 -108.93505096 488.32212448 C-108.95048734 498.92710909 -108.95555163 509.53203609 -108.94731286 520.13702981 C-108.94341869 525.54277007 -108.94427544 530.94839442 -108.95837021 536.35412025 C-108.97118342 541.31394376 -108.96984705 546.27356516 -108.9577795 551.23338868 C-108.95583525 553.01677086 -108.9588412 554.80016773 -108.96762386 556.58352934 C-109.09331381 583.85746887 -103.31833766 608.29165873 -84.58729553 629.13371277 C-84.00077209 629.79113464 -83.41424866 630.44855652 -82.80995178 631.12590027 C-68.99973443 645.74848334 -46.83823304 655.59315642 -26.71510029 656.26251394 C-25.28077494 656.26934538 -23.84641753 656.27083713 -22.41207886 656.26793385 C-21.61327189 656.27028608 -20.81446492 656.27263831 -19.99145168 656.27506182 C-17.31611044 656.28171609 -14.64081816 656.28129468 -11.96546936 656.28088379 C-10.02733664 656.28418463 -8.08920461 656.28791066 -6.15107346 656.29202527 C-0.82570581 656.30202816 4.49965057 656.3057593 9.82502627 656.30841458 C15.56894327 656.31232266 21.31285138 656.32190058 27.0567627 656.33062744 C40.92722899 656.35037661 54.797696 656.36045566 68.66817284 656.36935523 C75.20227989 656.37374027 81.73638614 656.37910649 88.27049255 656.3843441 C109.99458158 656.40135409 131.71866967 656.41587305 153.44276428 656.42309284 C154.84703259 656.42356759 156.25130089 656.42404348 157.6555692 656.4245205 C158.70012425 656.42487507 158.70012425 656.42487507 159.76578142 656.4252368 C163.29375968 656.42643796 166.82173794 656.42765342 170.34971619 656.42887878 C171.04984551 656.42911893 171.74997482 656.42935908 172.47132018 656.42960651 C195.16406943 656.43749699 217.85676638 656.46092488 240.54949279 656.49343473 C264.55684664 656.52776497 288.56416856 656.54744579 312.57154751 656.55073708 C325.65220854 656.55290116 338.73279266 656.5616351 351.81343079 656.58719826 C362.95322875 656.60891844 374.09293112 656.61694909 385.23274785 656.60723148 C390.91357702 656.60269079 396.59420901 656.60455985 402.27501106 656.62399292 C407.48271905 656.64165334 412.69008643 656.64060335 417.89779818 656.62509563 C419.77469817 656.62272396 421.65162192 656.62702 423.52848566 656.63892428 C437.79994468 656.72378511 450.83414334 655.23175482 463.66270447 648.38371277 C464.32616882 648.03864685 464.98963318 647.69358093 465.67320251 647.33805847 C487.88268213 635.49533269 502.22672701 616.84106006 510.36973572 593.37590027 C514.57878552 579.4839625 514.70768147 564.94119856 514.67340088 550.56419373 C514.67642839 548.74147535 514.68032086 546.91875825 514.68499345 545.09604335 C514.69520493 540.13128734 514.69310925 535.1666041 514.68881285 530.20184231 C514.68633308 524.83017654 514.69537526 519.45852773 514.70285034 514.08686829 C514.71556485 503.57997669 514.71739509 493.07311068 514.71505008 482.56621268 C514.71326308 474.02080567 514.71502473 465.47540639 514.71927452 456.93000031 C514.71986971 455.71123293 514.7204649 454.49246556 514.72107812 453.23676585 C514.72228995 450.76039102 514.72350408 448.28401619 514.7247205 445.80764136 C514.73558357 422.61183814 514.73343942 399.41604948 514.72733565 376.22024545 C514.72216788 355.03101534 514.73342048 333.84183123 514.75243387 312.65261021 C514.77183704 290.86084362 514.78006391 269.06909876 514.77631062 247.27732348 C514.7744023 235.05682279 514.77685004 222.83636123 514.79102516 210.61586761 C514.80297157 200.21205146 514.80430741 189.80829852 514.79223499 179.40448144 C514.7863691 174.10375396 514.7851831 168.80314194 514.7972374 163.50242233 C514.80817354 158.63656205 514.80490209 153.77091255 514.79097571 148.90506181 C514.78834988 147.15822413 514.79062759 145.4113695 514.79871158 143.66454855 C514.92861958 113.46276883 508.41105087 87.05121756 487.06211853 64.77140808 C471.39499383 49.2155951 450.217702 40.94898543 428.2843399 41.002285 C427.49059806 41.00023237 426.69685621 40.99817974 425.87906158 40.9960649 C423.22094863 40.9904132 420.56288779 40.99184989 417.9047699 40.99327087 C415.97901173 40.99068618 414.05325409 40.98767273 412.1274972 40.98426747 C406.83633262 40.97620633 401.54518162 40.97440839 396.25401163 40.97367001 C390.54690596 40.97181789 384.8398073 40.96426973 379.13270569 40.95753479 C366.65317316 40.94395693 354.17364384 40.93792752 341.69410515 40.93352413 C333.89989021 40.93076062 326.10567651 40.92652305 318.3114624 40.92201996 C296.72634184 40.90982769 275.14122278 40.89949314 253.55609894 40.89614487 C252.16082339 40.89592324 250.76554785 40.89570145 249.37027231 40.89547952 C247.97167931 40.89525888 246.57308631 40.89503839 245.17449331 40.89481807 C242.36880588 40.89437552 239.56311846 40.89392841 236.75743103 40.89347839 C236.06178624 40.893369 235.36614145 40.89325961 234.64941651 40.89314691 C212.10218291 40.88951772 189.55498148 40.87360233 167.00776019 40.85028803 C143.15409195 40.82566807 119.30044415 40.81197772 95.44676256 40.81077695 C82.44995392 40.80986083 69.45318741 40.80412449 56.45639038 40.78595734 C45.38796825 40.77054011 34.31960128 40.76544546 23.25117046 40.77369544 C17.60682926 40.77759625 11.9625991 40.77670008 6.31827164 40.76263809 C1.14391881 40.74986522 -4.03023996 40.75112642 -9.20459265 40.7632288 C-11.06937736 40.76517994 -12.93417599 40.76213455 -14.7989412 40.75338444 C-41.16856912 40.63755429 -63.20566704 47.33731995 -82.58729553 66.13371277 Z " fill="#000000" transform="translate(157.58729553222656,8.866287231445313)"/>
<path d="M0 0 C14.52273465 12.74309546 26.11907596 29.47198963 27.5090332 49.36083984 C28.07342672 74.02775972 23.4746608 94.0712646 5.95703125 112.578125 C-9.64819595 127.33600955 -28.50506666 132.41363734 -49.4453125 132.10546875 C-64.851643 131.53862408 -78.8034521 125.57206062 -90.66796875 115.828125 C-91.65796875 115.085625 -92.64796875 114.343125 -93.66796875 113.578125 C-104.34912695 104.46006312 -110.56579029 91.58357115 -115.66796875 78.828125 C-173.58296875 78.333125 -173.58296875 78.333125 -232.66796875 77.828125 C-233.65796875 81.788125 -234.64796875 85.748125 -235.66796875 89.828125 C-239.25544696 98.85585498 -244.14973324 106.62504674 -250.66796875 113.828125 C-251.34472656 114.59769531 -252.02148438 115.36726562 -252.71875 116.16015625 C-257.88357433 121.70266426 -263.44446076 125.43556774 -269.9453125 129.19921875 C-272.69859234 130.69623893 -272.69859234 130.69623893 -274.66796875 132.828125 C-258.91963517 162.34024606 -228.37679118 172.83853683 -198.23080444 182.03668213 C-187.34945469 185.3002677 -176.3385447 188.00197682 -165.30886841 190.71087646 C-106.24183004 205.28063314 -106.24183004 205.28063314 -84.66796875 217.828125 C-83.7759375 218.31410156 -82.88390625 218.80007813 -81.96484375 219.30078125 C-65.16851301 228.78172895 -52.3002314 241.91115882 -41.66796875 257.828125 C-41.10207031 258.64796875 -40.53617187 259.4678125 -39.953125 260.3125 C-36.58741449 265.49051617 -34.24532567 270.98119518 -31.98046875 276.703125 C-31.67004639 277.48445801 -31.35962402 278.26579102 -31.03979492 279.07080078 C-29.31974835 283.57750183 -28.36092884 287.64073199 -27.79296875 292.453125 C-27.14719823 295.43929949 -26.58515206 297.17904143 -24.04931641 298.97363281 C-20.47771383 300.9169919 -16.75821805 302.43215112 -12.9921875 303.953125 C-7.37397779 306.25253535 -3.15627317 309.81227368 1.33203125 313.828125 C2.16476562 314.47265625 2.9975 315.1171875 3.85546875 315.78125 C17.68154576 327.20848084 25.04904443 345.40287866 27.33203125 362.828125 C28.70157172 385.1094949 22.91698827 404.82084121 8.33203125 421.828125 C7.7184375 422.55386719 7.10484375 423.27960938 6.47265625 424.02734375 C-4.89502695 436.39091372 -22.89250238 445.42114544 -39.69921875 446.1640625 C-62.5538035 446.54694911 -81.87902807 440.99425014 -98.66796875 424.828125 C-107.28454602 415.70013217 -113.63122607 404.97509573 -116.66796875 392.828125 C-161.87796875 392.828125 -207.08796875 392.828125 -253.66796875 392.828125 C-255.15296875 397.283125 -255.15296875 397.283125 -256.66796875 401.828125 C-263.72802842 419.62480372 -278.4022977 433.96576567 -295.66796875 441.828125 C-312.91783821 449.17401129 -333.07801825 449.2907073 -350.66796875 442.828125 C-369.29627134 435.13126554 -384.20398572 421.08424086 -392.44262695 402.64160156 C-400.56779398 383.01228574 -401.17020973 362.54571899 -393.41796875 342.640625 C-384.83637562 323.34488716 -370.85476135 310.12699269 -351.4921875 302.203125 C-334.23829581 295.65631707 -314.67957376 296.34100371 -297.54296875 302.953125 C-276.88504749 312.38634921 -261.85060837 327.44767955 -253.66796875 348.828125 C-253.66796875 349.488125 -253.66796875 350.148125 -253.66796875 350.828125 C-209.11796875 350.828125 -164.56796875 350.828125 -118.66796875 350.828125 C-117.18296875 345.878125 -117.18296875 345.878125 -115.66796875 340.828125 C-108.30679528 321.96847618 -92.85496256 307.98002577 -74.66796875 299.828125 C-73.67796875 299.828125 -72.68796875 299.828125 -71.66796875 299.828125 C-75.2564877 289.52696473 -79.45201372 281.1904274 -86.66796875 272.828125 C-87.35632813 272.02761719 -88.0446875 271.22710937 -88.75390625 270.40234375 C-114.47330141 242.72292033 -160.24120895 236.45038823 -195.16796875 227.69140625 C-228.15561128 219.40083936 -260.81701469 209.54856204 -287.66796875 187.828125 C-288.52003906 187.14234375 -289.37210937 186.4565625 -290.25 185.75 C-300.44630056 177.07913024 -307.94847921 166.766722 -314.23046875 155.015625 C-314.648125 154.23977051 -315.06578125 153.46391602 -315.49609375 152.66455078 C-318.16880501 147.45120992 -319.60724418 142.59043958 -320.66796875 136.828125 C-321.86421875 136.6425 -323.06046875 136.456875 -324.29296875 136.265625 C-334.94258934 133.88037875 -344.48551684 127.86379388 -352.66796875 120.828125 C-353.63863281 120.05597656 -354.60929687 119.28382813 -355.609375 118.48828125 C-370.27439715 106.24057045 -378.49366259 86.37126433 -380.66796875 67.828125 C-381.85968319 47.45439166 -376.6725836 28.63765677 -363.66796875 12.828125 C-362.83652344 11.75304687 -362.83652344 11.75304687 -361.98828125 10.65625 C-351.2807328 -2.56168063 -333.44038751 -11.9279376 -316.66796875 -14.171875 C-296.04421544 -15.96507425 -276.93951413 -12.17039271 -260.29296875 0.765625 C-258.73447304 2.10038887 -257.19171156 3.45382106 -255.66796875 4.828125 C-254.98347656 5.41980469 -254.29898438 6.01148438 -253.59375 6.62109375 C-246.32921764 13.31473948 -241.05966736 22.04472779 -236.66796875 30.828125 C-196.07796875 31.158125 -155.48796875 31.488125 -113.66796875 31.828125 C-113.00796875 29.848125 -112.34796875 27.868125 -111.66796875 25.828125 C-103.01887503 7.95734948 -87.54195861 -5.86113118 -68.90527344 -12.48779297 C-44.93360203 -19.8174114 -19.60610128 -15.96045726 0 0 Z M-73.48046875 37.140625 C-79.74581168 45.75189543 -80.72361873 54.29561722 -79.66796875 64.828125 C-77.74173508 73.06048081 -73.02085578 80.65187774 -66.16796875 85.65234375 C-56.59570433 91.53529793 -47.75945115 94.20087661 -36.54296875 91.765625 C-26.76870627 88.94588304 -19.95242374 83.50777387 -14.66796875 74.828125 C-9.93764981 65.50743739 -9.0136827 56.1251947 -12.23046875 46.140625 C-16.38076697 36.06962162 -23.05990313 29.41478451 -32.85546875 24.796875 C-48.19029499 18.88201345 -63.35290546 25.00446356 -73.48046875 37.140625 Z M-330.703125 35.71484375 C-337.8765888 43.46705834 -340.84694839 51.71261522 -342.04296875 62.078125 C-340.88045415 73.70327104 -336.35383745 83.54123156 -327.98046875 91.640625 C-320.04770513 98.07664077 -311.43008507 99.59182959 -301.37890625 99.265625 C-290.87577272 98.02736084 -282.44571863 92.86993126 -275.66796875 84.828125 C-269.18890668 74.32439098 -266.62389416 64.0439813 -269.3515625 51.74609375 C-272.66635414 41.91175341 -279.32057693 32.51532714 -288.79296875 27.76171875 C-303.49317856 22.32789119 -319.114342 24.97130788 -330.703125 35.71484375 Z M-74.91796875 348.078125 C-80.61386317 355.15531261 -82.96312246 363.8259368 -82.66796875 372.828125 C-81.12174967 384.42476806 -75.9847817 392.65733619 -67.07421875 400.09765625 C-59.14505827 405.79995835 -51.27006268 406.78479119 -41.66796875 405.828125 C-30.85613967 403.98294684 -22.97843507 397.62113518 -16.66796875 388.828125 C-11.73485259 380.02326009 -10.2055727 370.70751001 -12.79296875 360.890625 C-16.20708048 350.53713269 -23.21975197 342.51595924 -32.85546875 337.453125 C-47.92910757 330.15431041 -64.13999132 336.65508159 -74.91796875 348.078125 Z M-352.66796875 350.828125 C-358.52060137 359.05753096 -360.71142594 367.80301101 -359.66796875 377.828125 C-357.38699159 388.52276644 -352.0790301 397.25901654 -343.02734375 403.5390625 C-335.06079366 407.89164782 -326.56814664 410.1350273 -317.66796875 407.828125 C-307.28001904 404.44075009 -299.89932203 398.39169271 -294.66796875 388.828125 C-290.23510398 379.94507958 -289.89226973 371.20344308 -292.6015625 361.71484375 C-296.23468198 351.88013571 -303.89555779 343.73378592 -313.41796875 339.328125 C-328.4878622 334.0945496 -342.41970815 339.30345649 -352.66796875 350.828125 Z " fill="#000000" transform="translate(548.66796875,132.171875)"/>
</svg>
